PathFileType	4	(X/Y/Z)	S1_nor_slow_right.trc
DataRate	CameraRate	NumFrames	NumMarkers	Units	OrigDataRate	OrigDataStartFrame	OrigNumFrames
250.00	250.00	15	18	mm	250.00	1	9891
Frame#	Time	c7	r_should	l_should	clavicle	r_upa	r_elb_l	r_elb_m	r_low	r_wri_l	r_wri_m	r_met	l_upa	l_elb_l	l_elb_m	l_low	l_wri_l	l_wri_m	l_met
	X1	Y1	Z1	X2	Y2	Z2	X3	Y3	Z3	X4	Y4	Z4	X5	Y5	Z5	X6	Y6	Z6	X7	Y7	Z7	X8	Y8	Z8	X9	Y9	Z9	X10	Y10	Z10	X11	Y11	Z11	X12	Y12	Z12	X13	Y13	Z13	X14	Y14	Z14	X15	Y15	Z15	X16	Y16	Z16	X17	Y17	Z17	X18	Y18	Z18
1	0.00000	908.52380	1423.94153	75.38410	982.90778	1337.47888	248.00700	950.61688	1365.75745	-122.91065	1038.94470	1295.60364	51.42988	946.58167	1132.72034	297.50439	955.56702	1048.21741	308.27051	905.16370	1018.58606	226.16341	989.80762	921.13446	283.91373	1097.62390	895.18475	296.41251	1071.73914	876.09637	226.32921	1138.67468	823.06464	310.09692	931.46783	1148.04297	-171.74292	931.84277	1062.70227	-185.63609	857.51331	1041.48596	-114.31983	880.40613	922.86316	-199.75865	950.35950	830.59479	-174.64867	879.53503	822.86078	-193.36794	964.34460	753.65912	-195.08284
2	0.00400	908.51483	1423.94702	75.34823	982.81958	1337.54114	248.02364	950.63409	1365.73779	-122.92242	1038.92688	1295.59753	51.44822	946.44922	1133.04724	297.59604	955.33600	1048.44958	308.30582	905.09595	1018.69427	226.21080	990.00372	921.57446	283.96176	1097.95886	896.14288	296.40430	1072.04626	876.95715	226.41325	1139.41565	824.23718	310.05472	931.44617	1148.02747	-171.73920	931.81421	1062.68384	-185.63083	857.49438	1041.48767	-114.30751	880.36499	922.85498	-199.73967	950.31262	830.57690	-174.64404	879.47809	822.84924	-193.34668	964.27142	753.63147	-195.08653
3	0.00800	908.50946	1423.95837	75.32317	982.73694	1337.59875	248.02362	950.65216	1365.72119	-122.93001	1038.90735	1295.58899	51.46338	946.18860	1132.98608	297.60785	955.10980	1048.66675	308.33990	905.00757	1018.80908	226.26787	990.21838	922.01959	284.00983	1098.30164	897.09076	296.38998	1072.28894	877.79285	226.56429	1140.16895	825.39886	310.00995	931.42792	1148.00659	-171.73518	931.78571	1062.66016	-185.62836	857.47278	1041.48718	-114.29671	880.31964	922.84430	-199.72247	950.25977	830.55493	-174.63992	879.41736	822.83514	-193.31485	964.19379	753.59247	-195.08058
4	0.01200	908.50116	1423.96619	75.30037	982.66248	1337.65906	248.02844	950.66516	1365.70410	-122.93653	1038.88989	1295.58496	51.48188	945.99799	1133.14099	297.66159	954.88037	1048.88794	308.36942	904.91754	1018.91205	226.32468	990.43872	922.46796	284.05475	1098.64783	898.04242	296.36951	1072.52673	878.68555	226.71977	1140.92371	826.56195	309.96634	931.41089	1147.98950	-171.73100	931.75635	1062.64563	-185.62253	857.44946	1041.48022	-114.28532	880.27423	922.83441	-199.70125	950.19958	830.52716	-174.63318	879.35413	822.81836	-193.28378	964.11304	753.55347	-195.07164
5	0.01600	908.50305	1423.98291	75.27631	982.58063	1337.72168	248.03778	950.67401	1365.68884	-122.94653	1038.87183	1295.57874	51.48919	945.87341	1133.45837	297.76050	954.64825	1049.11230	308.40234	904.82483	1019.01758	226.38179	990.64954	922.91418	284.09357	1099.00842	898.99756	296.35120	1072.74963	879.57855	226.87083	1141.68665	827.72028	309.90802	931.39355	1147.97632	-171.72144	931.72748	1062.62744	-185.61154	857.43060	1041.46863	-114.26291	880.22546	922.82428	-199.67725	950.14716	830.51160	-174.61865	879.28900	822.80695	-193.24278	964.03516	753.52802	-195.05972
6	0.02000	908.49768	1423.99951	75.24170	982.49945	1337.78223	248.04759	950.68799	1365.67114	-122.95422	1038.85596	1295.56934	51.50612	945.65997	1133.51135	297.80328	954.41486	1049.34546	308.44397	904.71820	1019.12299	226.41425	990.85925	923.35547	284.11493	1099.35376	899.95190	296.33054	1073.28394	880.23596	226.99666	1142.43689	828.90009	309.85352	931.38019	1147.96069	-171.70749	931.69843	1062.61023	-185.59726	857.40295	1041.46558	-114.24277	880.18060	922.81451	-199.65295	950.09741	830.50647	-174.61235	879.22400	822.79639	-193.19800	963.96063	753.50220	-195.04926
7	0.02400	908.48816	1424.01196	75.21826	982.41718	1337.84680	248.05443	950.70276	1365.65344	-122.95432	1038.84314	1295.56836	51.53176	945.38818	1133.38135	297.81836	954.19202	1049.59253	308.47098	904.60382	1019.24811	226.44162	991.08557	923.80328	284.13089	1099.69141	900.90308	296.31705	1074.52087	880.49213	226.99916	1143.18201	830.06500	309.79492	931.37421	1147.94922	-171.69678	931.67474	1062.59265	-185.57465	857.37427	1041.46960	-114.22924	880.13556	922.80597	-199.62514	950.05042	830.49133	-174.59401	879.16248	822.78693	-193.15092	963.88336	753.46924	-195.03122
8	0.02800	908.48077	1424.02698	75.20707	982.33820	1337.91101	248.07019	950.72363	1365.64087	-122.95267	1038.83838	1295.57007	51.57141	945.16833	1133.42896	297.86594	953.99011	1049.85486	308.50684	904.48639	1019.38177	226.47632	991.31165	924.25385	284.15237	1100.03259	901.87329	296.29929	1075.68384	880.74542	226.83299	1143.92432	831.24310	309.73407	931.36847	1147.93945	-171.68365	931.65112	1062.57886	-185.55717	857.35309	1041.47363	-114.21262	880.09607	922.79980	-199.59109	950.00171	830.46649	-174.55804	879.10309	822.78430	-193.09926	963.81165	753.43390	-195.00255
9	0.03200	908.47491	1424.04126	75.19698	982.25439	1337.97363	248.08818	950.74744	1365.62842	-122.95705	1038.83069	1295.57410	51.60351	944.97565	1133.54651	297.92102	953.78711	1050.12170	308.54868	904.14807	1019.63068	226.31943	991.53241	924.71539	284.17236	1100.37061	902.84070	296.27545	1076.20691	881.34741	226.93835	1144.61926	832.44843	309.71222	931.36658	1147.92871	-171.66489	931.63068	1062.56958	-185.54303	857.32996	1041.48303	-114.19199	880.05865	922.79138	-199.55568	949.95245	830.45068	-174.52585	879.05023	822.77728	-193.05077	963.74011	753.40472	-194.97144
10	0.03600	908.46741	1424.06201	75.17467	982.16809	1338.03967	248.10199	950.77319	1365.61511	-122.95600	1038.82812	1295.57874	51.64656	944.78680	1133.66235	297.97461	953.58081	1050.37024	308.58606	903.50159	1019.88983	226.17149	991.75061	925.16553	284.17651	1100.70471	903.79303	296.24875	1076.63745	882.10529	227.07837	1145.32825	833.64465	309.66589	931.36621	1147.91492	-171.64163	931.61139	1062.55518	-185.51369	857.30621	1041.49280	-114.16887	880.01892	922.78375	-199.51399	949.91425	830.44678	-174.50098	879.00031	822.76495	-192.99477	963.66663	753.38416	-194.94180
11	0.04000	908.45734	1424.07922	75.15669	982.08588	1338.09985	248.10947	950.80164	1365.59631	-122.95345	1038.82654	1295.58301	51.69263	944.60272	1133.76953	298.03531	953.36157	1050.61121	308.60980	903.30658	1019.77039	226.78160	992.31940	925.66650	283.89746	1101.03894	904.75629	296.22714	1077.22949	883.25220	226.87372	1146.03540	834.84528	309.62006	931.36658	1147.89673	-171.62070	931.59344	1062.53552	-185.48990	857.28033	1041.49121	-114.14279	879.98328	922.77228	-199.47073	949.87012	830.42682	-174.46869	878.94617	822.75439	-192.93759	963.60217	753.35266	-194.91115
12	0.04400	908.44995	1424.08923	75.14350	981.99585	1338.16919	248.12213	950.83771	1365.57629	-122.95516	1038.82129	1295.58398	51.73561	944.43530	1133.86060	298.07462	953.16003	1050.85022	308.64023	903.51923	1019.65155	227.25513	992.97839	926.20270	283.55746	1101.36316	905.72144	296.20383	1077.95532	884.72833	226.21292	1146.75708	836.02148	309.55893	931.36493	1147.87708	-171.60028	931.58344	1062.51331	-185.46759	857.26428	1041.48425	-114.11449	879.94647	922.75989	-199.42772	949.83411	830.40344	-174.43340	878.89563	822.73987	-192.88956	963.53625	753.32153	-194.88133
13	0.04800	908.44165	1424.09814	75.11913	981.89954	1338.24060	248.13948	950.87885	1365.55530	-122.95698	1038.81067	1295.57971	51.77190	944.26495	1133.94800	298.09888	952.97534	1051.08936	308.65741	903.51630	1019.70959	227.39122	992.91809	926.36273	283.82761	1101.66858	906.68646	296.17575	1078.41809	885.70544	226.00073	1147.46924	837.22040	309.49280	931.36639	1147.85217	-171.57896	931.57068	1062.49243	-185.44153	857.24475	1041.47485	-114.08602	879.91150	922.74579	-199.38747	949.79181	830.38281	-174.40073	878.84180	822.72589	-192.83968	963.47003	753.28589	-194.85757
14	0.05200	908.43683	1424.11182	75.08800	981.79724	1338.31360	248.14487	950.91815	1365.53650	-122.96374	1038.80566	1295.57800	51.80803	944.08893	1134.04846	298.12405	952.79388	1051.32581	308.66248	903.47253	1019.83331	227.44278	994.06750	926.37787	283.28387	1101.98840	907.64984	296.13940	1078.85413	886.63086	225.85423	1148.14783	838.41125	309.44830	931.36786	1147.83350	-171.56444	931.55396	1062.47437	-185.42256	857.22516	1041.47400	-114.06450	879.87958	922.73450	-199.35498	949.73499	830.35931	-174.37547	878.78583	822.70953	-192.78804	963.40485	753.24487	-194.83235
15	0.05600	908.43042	1424.11926	75.06438	981.68719	1338.38428	248.15126	950.96057	1365.51208	-122.96961	1038.79663	1295.57288	51.83781	943.91180	1134.14575	298.14575	952.60455	1051.56018	308.67004	903.41113	1019.95502	227.47426	995.40668	926.77130	282.74811	1102.30042	908.63721	296.10547	1079.24487	887.48907	225.80330	1148.85071	839.62244	309.38440	931.37274	1147.81250	-171.54808	931.54517	1062.45325	-185.40681	857.21210	1041.46521	-114.03772	879.84460	922.71924	-199.32140	949.68414	830.34015	-174.35110	878.73474	822.69427	-192.73828	963.33813	753.21234	-194.80550
